<svg viewBox="0 0 120 120" xmlns="http://www.w3.org/2000/svg">
  <!-- Main app icon background with dreamy rounded square -->
  <rect x="8" y="8" width="104" height="104" rx="24" ry="24" 
        fill="#FAF7FF" 
        stroke="rgba(124, 111, 212, 0.2)" 
        stroke-width="1"/>
  
  <!-- Geometric rangoli-inspired mandala pattern -->
  <g transform="translate(60,60)">
    
    <!-- Outer ring of diamonds -->
    <polygon points="0,-32 8,-24 0,-16 -8,-24" fill="#7C6FD4"/>
    <polygon points="23,-23 31,-15 23,-7 15,-15" fill="#FF9B9B"/>
    <polygon points="32,0 24,8 16,0 24,-8" fill="#98D8C8"/>
    <polygon points="23,23 31,15 23,7 15,15" fill="#F7DC6F"/>
    <polygon points="0,32 8,24 0,16 -8,24" fill="#87CEEB"/>
    <polygon points="-23,23 -15,31 -7,23 -15,15" fill="#DDA0DD"/>
    <polygon points="-32,0 -24,8 -16,0 -24,-8" fill="#98D8C8"/>
    <polygon points="-23,-23 -15,-31 -7,-23 -15,-15" fill="#FF9B9B"/>
    
    <!-- Middle ring of triangles -->
    <polygon points="0,-20 6,-12 -6,-12" fill="#98D8C8"/>
    <polygon points="14,-14 22,-8 8,-8" fill="#F7DC6F"/>
    <polygon points="20,0 12,6 12,-6" fill="#DDA0DD"/>
    <polygon points="14,14 22,8 8,8" fill="#7C6FD4"/>
    <polygon points="0,20 6,12 -6,12" fill="#FF9B9B"/>
    <polygon points="-14,14 -8,22 -8,8" fill="#87CEEB"/>
    <polygon points="-20,0 -12,6 -12,-6" fill="#98D8C8"/>
    <polygon points="-14,-14 -8,-22 -8,-8" fill="#F7DC6F"/>
    
    <!-- Inner ring of small diamonds -->
    <polygon points="0,-12 4,-8 0,-4 -4,-8" fill="#F7DC6F"/>
    <polygon points="8,-8 12,-4 8,0 4,-4" fill="#DDA0DD"/>
    <polygon points="12,0 8,4 4,0 8,-4" fill="#7C6FD4"/>
    <polygon points="8,8 12,4 8,0 4,4" fill="#87CEEB"/>
    <polygon points="0,12 4,8 0,4 -4,8" fill="#FF9B9B"/>
    <polygon points="-8,8 -4,12 0,8 -4,4" fill="#98D8C8"/>
    <polygon points="-12,0 -8,4 -4,0 -8,-4" fill="#F7DC6F"/>
    <polygon points="-8,-8 -4,-12 0,-8 -4,-4" fill="#DDA0DD"/>
    
    <!-- Central circle with dot pattern -->
    <circle cx="0" cy="0" r="8" fill="#7C6FD4"/>
    
    <!-- Central dot pattern (simplified Om inspiration) -->
    <circle cx="0" cy="-2" r="1.5" fill="#FAF7FF"/>
    <circle cx="-2" cy="2" r="1" fill="#FAF7FF"/>
    <circle cx="2" cy="2" r="1" fill="#FAF7FF"/>
    <circle cx="0" cy="0" r="0.5" fill="#FAF7FF"/>
  </g>
  
  <!-- Corner accent dots for balance -->
  <circle cx="20" cy="20" r="2" fill="#98D8C8" opacity="0.6"/>
  <circle cx="100" cy="20" r="2" fill="#FF9B9B" opacity="0.6"/>
  <circle cx="20" cy="100" r="2" fill="#F7DC6F" opacity="0.6"/>
  <circle cx="100" cy="100" r="2" fill="#DDA0DD" opacity="0.6"/>
</svg>